<svg width="25" height="25" viewBox="0 0 25 25" fill="none" xmlns="http://www.w3.org/2000/svg">
<g id="smartphone-rotate-2-svgrepo-com 2">
<path id="Vector" fill-rule="evenodd" clip-rule="evenodd" d="M10.2778 21.2056H14.7222C17.8433 21.2056 19.4038 21.2056 20.5248 20.4702C21.01 20.1518 21.4267 19.7427 21.751 19.2663C22.5 18.1657 22.5 16.6335 22.5 13.5692C22.5 10.505 22.5 8.97278 21.751 7.87217C21.4267 7.39571 21.01 6.98661 20.5248 6.66825C19.8044 6.1957 18.9027 6.0268 17.522 5.96643C16.8631 5.96643 16.2959 5.47625 16.1667 4.84193C15.9728 3.89046 15.1219 3.20557 14.1337 3.20557H10.8663C9.87805 3.20557 9.02715 3.89046 8.83333 4.84193C8.70412 5.47625 8.13685 5.96643 7.478 5.96643C6.09733 6.0268 5.19555 6.1957 4.47524 6.66825C3.98995 6.98661 3.57328 7.39571 3.24902 7.87217C2.5 8.97278 2.5 10.505 2.5 13.5692C2.5 16.6335 2.5 18.1657 3.24902 19.2663C3.57328 19.7427 3.98995 20.1518 4.47524 20.4702C5.59624 21.2056 7.15675 21.2056 10.2778 21.2056ZM12.5 9.4783C10.1988 9.4783 8.33333 11.3099 8.33333 13.5692C8.33333 15.8286 10.1988 17.6601 12.5 17.6601C14.8012 17.6601 16.6667 15.8286 16.6667 13.5692C16.6667 11.3099 14.8012 9.4783 12.5 9.4783ZM12.5 11.1147C11.1193 11.1147 10 12.2136 10 13.5692C10 14.9248 11.1193 16.0238 12.5 16.0238C13.8807 16.0238 15 14.9248 15 13.5692C15 12.2136 13.8807 11.1147 12.5 11.1147ZM17.2222 10.2965C17.2222 9.84461 17.5953 9.4783 18.0556 9.4783H19.1667C19.6269 9.4783 20 9.84461 20 10.2965C20 10.7484 19.6269 11.1147 19.1667 11.1147H18.0556C17.5953 11.1147 17.2222 10.7484 17.2222 10.2965Z" fill="#4E4E4E"/>
</g>
</svg>
