<svg width="67" height="23" viewBox="0 0 67 23" fill="none" xmlns="http://www.w3.org/2000/svg">
<g id="Logo Vector">
<path d="M14.9828 16.08C13.9268 17.352 8.81617 17.5 6.89617 17.5C3.10417 17.5 0.800171 15.052 0.800171 11.5C0.800171 7.972 3.12817 5.524 6.89617 5.524C8.72017 5.524 13.9748 6.72 15.0308 7.992L9.63217 9.484C8.86417 8.644 8.02417 8.308 6.89617 8.308C5.28817 8.308 3.89617 9.604 3.89617 11.5C3.89617 13.564 5.19217 14.716 6.89617 14.716C7.90417 14.716 9.05617 14.332 9.68017 13.54L14.9828 16.08Z" fill="white"/>
<path d="M29.6037 6.312L22.6197 22.872H19.1877L21.4197 17.712L16.5957 6.312H20.0037L22.4037 12.408L23.0997 14.592L23.7717 12.408L26.1717 6.312H29.6037Z" fill="white"/>
<path d="M37.4496 8.856C35.7216 8.856 34.4736 10.176 34.4736 11.976C34.4736 13.752 35.7216 15.072 37.4496 15.072C39.1296 15.072 40.2816 13.824 40.2816 11.976C40.2816 10.104 39.1296 8.856 37.4496 8.856ZM31.4736 17.592V0H34.5216V6.264L34.4736 7.08C34.9776 6.408 36.5136 6.024 37.5696 6.024C41.3376 6.024 43.4496 8.784 43.4496 11.976C43.4496 15.576 41.2896 17.904 37.5696 17.904C36.6576 17.904 35.1936 17.472 34.5936 16.752L34.6176 17.4V17.592H31.4736Z" fill="white"/>
<path d="M56.1379 16.152C55.2499 17.304 53.2099 18 51.4579 18C47.6419 18 45.5059 15.384 45.5059 12C45.5059 8.544 47.6179 6.024 51.3379 6.024C55.0339 6.024 57.1459 8.544 57.1459 12C57.1459 12.384 57.1459 12.624 57.1219 12.96H48.6259C48.7939 14.376 49.8499 15.264 51.4579 15.264C52.6099 15.264 53.6899 14.88 54.3619 14.136L56.1379 16.152ZM48.6739 10.896H53.9539C53.8099 9.624 52.7539 8.76 51.3379 8.76C49.9219 8.76 48.7939 9.624 48.6739 10.896Z" fill="white"/>
<path d="M65.5517 9.144C64.9277 8.928 64.3757 8.856 63.7277 8.856C63.2957 8.856 62.9357 8.88 62.5997 9.024V17.592H59.5037V6.816C60.4397 6.336 62.0477 6 63.6077 6C64.2797 6 65.4797 6.072 66.1997 6.336L65.5517 9.144Z" fill="white"/>
</g>
</svg>
