<svg width="25" height="25" viewBox="0 0 25 25" fill="none" xmlns="http://www.w3.org/2000/svg">
<g id="smartphone-rotate-2-svgrepo-com 2">
<path id="Vector" fill-rule="evenodd" clip-rule="evenodd" d="M12.5 3.20557C12.8853 3.20557 13.1977 3.51793 13.1977 3.90324V6.69441C13.7084 6.69548 14.1717 6.69899 14.5932 6.71052L14.593 6.69394V3.90324C14.593 3.51793 14.9054 3.20557 15.2907 3.20557C15.676 3.20557 15.9884 3.51793 15.9884 3.90324V6.69394C15.9884 6.73044 15.9856 6.76629 15.9802 6.80127C16.9162 6.91624 17.5648 7.15436 18.058 7.64755C18.5512 8.14074 18.7893 8.78938 18.9043 9.72541C18.9393 9.72 18.9751 9.7172 19.0116 9.7172H21.8023C22.1876 9.7172 22.5 10.0296 22.5 10.4149C22.5 10.8002 22.1876 11.1126 21.8023 11.1126H19.0116L18.995 11.1124C19.0066 11.5339 19.0106 11.9972 19.0116 12.5079H21.8023C22.1876 12.5079 22.5 12.8203 22.5 13.2056C22.5 13.5909 22.1876 13.9033 21.8023 13.9033H19.0112C19.0101 14.414 19.0066 14.8773 18.995 15.2988L19.0116 15.2986H21.8023C22.1876 15.2986 22.5 15.611 22.5 15.9963C22.5 16.3816 22.1876 16.694 21.8023 16.694H19.0116C18.9751 16.694 18.9393 16.6912 18.9043 16.6858C18.7893 17.6218 18.5512 18.2704 18.058 18.7636C17.5648 19.2568 16.9162 19.4949 15.9802 19.6099C15.9856 19.6449 15.9884 19.6807 15.9884 19.7172V22.5079C15.9884 22.8932 15.676 23.2056 15.2907 23.2056C14.9054 23.2056 14.593 22.8932 14.593 22.5079V19.7172L14.5932 19.7006C14.1717 19.7122 13.7084 19.7162 13.1977 19.7172V22.5079C13.1977 22.8932 12.8853 23.2056 12.5 23.2056C12.1147 23.2056 11.8023 22.8932 11.8023 22.5079V19.7168C11.2916 19.7157 10.8283 19.7122 10.4068 19.7006L10.407 19.7172V22.5079C10.407 22.8932 10.0946 23.2056 9.7093 23.2056C9.32399 23.2056 9.01163 22.8932 9.01163 22.5079V19.7172C9.01163 19.6807 9.01443 19.6449 9.01984 19.6099C8.08381 19.4949 7.43517 19.2568 6.94198 18.7636C6.44879 18.2704 6.21067 17.6218 6.0957 16.6858C6.06071 16.6912 6.02487 16.694 5.98837 16.694H3.19767C2.81236 16.694 2.5 16.3816 2.5 15.9963C2.5 15.611 2.81236 15.2986 3.19767 15.2986H5.98837L6.00495 15.2988C5.99342 14.8773 5.98944 14.414 5.98837 13.9033H3.19767C2.81236 13.9033 2.5 13.5909 2.5 13.2056C2.5 12.8203 2.81236 12.5079 3.19767 12.5079H5.98884C5.98991 11.9972 5.99342 11.5339 6.00495 11.1124L5.98837 11.1126H3.19767C2.81236 11.1126 2.5 10.8002 2.5 10.4149C2.5 10.0296 2.81236 9.7172 3.19767 9.7172H5.98837C6.02487 9.7172 6.06071 9.72 6.0957 9.72541C6.21067 8.78938 6.44879 8.14074 6.94198 7.64755C7.43517 7.15436 8.08381 6.91624 9.01984 6.80127C9.01443 6.76629 9.01163 6.73044 9.01163 6.69394V3.90324C9.01163 3.51793 9.32399 3.20557 9.7093 3.20557C10.0946 3.20557 10.407 3.51793 10.407 3.90324V6.69394L10.4068 6.71052C10.8283 6.69899 11.2916 6.69501 11.8023 6.69394V3.90324C11.8023 3.51793 12.1147 3.20557 12.5 3.20557ZM11.5238 8.78697C10.9054 8.78693 10.3725 8.7869 9.94573 8.84428C9.48839 8.90576 9.05001 9.04442 8.69443 9.4C8.33885 9.75558 8.20019 10.194 8.13871 10.6513C8.08133 11.0781 8.08136 11.611 8.0814 12.2294V14.1818C8.08136 14.8002 8.08133 15.3331 8.13871 15.7599C8.20019 16.2172 8.33885 16.6556 8.69443 17.0112C9.05001 17.3668 9.48839 17.5054 9.94573 17.5669C10.3725 17.6243 10.9054 17.6242 11.5238 17.6242H13.4762C14.0946 17.6242 14.6275 17.6243 15.0543 17.5669C15.5116 17.5054 15.95 17.3668 16.3056 17.0112C16.6612 16.6556 16.7998 16.2172 16.8613 15.7599C16.9187 15.3331 16.9186 14.8002 16.9186 14.1818V12.2294C16.9186 11.611 16.9187 11.0781 16.8613 10.6513C16.7998 10.194 16.6612 9.75558 16.3056 9.4C15.95 9.04442 15.5116 8.90576 15.0543 8.84428C14.6275 8.7869 14.0947 8.78693 13.4762 8.78697H11.5238Z" fill="#4E4E4E"/>
<path id="Vector_2" opacity="0.5" d="M9.68091 10.3865C9.73402 10.3334 9.82886 10.2677 10.1315 10.227C10.4542 10.1836 10.8921 10.1821 11.5696 10.1821H13.4301C14.1075 10.1821 14.5455 10.1836 14.8682 10.227C15.1708 10.2677 15.2656 10.3334 15.3187 10.3865C15.3718 10.4396 15.4375 10.5345 15.4782 10.8371C15.5216 11.1598 15.5231 11.5977 15.5231 12.2752V14.1357C15.5231 14.8131 15.5216 15.2511 15.4782 15.5738C15.4375 15.8764 15.3718 15.9712 15.3187 16.0243C15.2656 16.0774 15.1708 16.1431 14.8682 16.1838C14.5455 16.2272 14.1075 16.2287 13.4301 16.2287H11.5696C10.8921 16.2287 10.4542 16.2272 10.1315 16.1838C9.82886 16.1431 9.73402 16.0774 9.68091 16.0243C9.6278 15.9712 9.56211 15.8764 9.52143 15.5738C9.47804 15.2511 9.47656 14.8131 9.47656 14.1357V12.2752C9.47656 11.5977 9.47804 11.1598 9.52143 10.8371C9.56211 10.5345 9.6278 10.4396 9.68091 10.3865Z" fill="#4E4E4E"/>
</g>
</svg>
