<svg width="25" height="25" viewBox="0 0 25 25" fill="none" xmlns="http://www.w3.org/2000/svg">
<g id="verify">
<path id="Vector" d="M11.6231 15.3756C11.4231 15.3756 11.2331 15.2956 11.0931 15.1556L8.67307 12.7356C8.38307 12.4456 8.38307 11.9656 8.67307 11.6756C8.96307 11.3856 9.44307 11.3856 9.73307 11.6756L11.6231 13.5656L15.9231 9.2656C16.2131 8.9756 16.6931 8.9756 16.9831 9.2656C17.2731 9.5556 17.2731 10.0356 16.9831 10.3256L12.1531 15.1556C12.0131 15.2956 11.8231 15.3756 11.6231 15.3756Z" fill="#797979"/>
<path id="Vector_2" d="M12.8329 22.9556C12.2029 22.9556 11.5729 22.7456 11.0829 22.3256L9.50289 20.9656C9.34289 20.8256 8.94289 20.6856 8.73289 20.6856H7.01289C5.53289 20.6856 4.33289 19.4856 4.33289 18.0056V16.2956C4.33289 16.0856 4.19289 15.6956 4.05289 15.5356L2.70289 13.9456C1.88289 12.9756 1.88289 11.4456 2.70289 10.4756L4.05289 8.88557C4.19289 8.72557 4.33289 8.33557 4.33289 8.12557V6.40557C4.33289 4.92557 5.53289 3.72557 7.01289 3.72557H8.74289C8.95289 3.72557 9.35289 3.57557 9.51289 3.44557L11.0929 2.08557C12.0729 1.24557 13.6029 1.24557 14.5829 2.08557L16.1629 3.44557C16.3229 3.58557 16.7229 3.72557 16.9329 3.72557H18.6329C20.1129 3.72557 21.3129 4.92557 21.3129 6.40557V8.10557C21.3129 8.31557 21.4629 8.71557 21.6029 8.87557L22.9629 10.4556C23.8029 11.4356 23.8029 12.9656 22.9629 13.9456L21.6029 15.5256C21.4629 15.6856 21.3129 16.0856 21.3129 16.2956V17.9956C21.3129 19.4756 20.1129 20.6756 18.6329 20.6756H16.9329C16.7229 20.6756 16.3229 20.8256 16.1629 20.9556L14.5829 22.3156C14.0929 22.7456 13.4629 22.9556 12.8329 22.9556ZM7.01289 5.22557C6.36289 5.22557 5.83289 5.75557 5.83289 6.40557V8.11557C5.83289 8.68557 5.56289 9.41557 5.19289 9.84557L3.84289 11.4356C3.49289 11.8456 3.49289 12.5556 3.84289 12.9656L5.19289 14.5556C5.56289 14.9956 5.83289 15.7156 5.83289 16.2856V17.9956C5.83289 18.6456 6.36289 19.1756 7.01289 19.1756H8.74289C9.32289 19.1756 10.0529 19.4456 10.4929 19.8256L12.0729 21.1856C12.4829 21.5356 13.2029 21.5356 13.6129 21.1856L15.1929 19.8256C15.6329 19.4556 16.3629 19.1756 16.9429 19.1756H18.6429C19.2929 19.1756 19.8229 18.6456 19.8229 17.9956V16.2956C19.8229 15.7156 20.0929 14.9856 20.4729 14.5456L21.8329 12.9656C22.1829 12.5556 22.1829 11.8356 21.8329 11.4256L20.4729 9.84557C20.0929 9.40557 19.8229 8.67557 19.8229 8.09557V6.40557C19.8229 5.75557 19.2929 5.22557 18.6429 5.22557H16.9429C16.3629 5.22557 15.6329 4.95557 15.1929 4.57557L13.6129 3.21557C13.2029 2.86557 12.4829 2.86557 12.0729 3.21557L10.4929 4.58557C10.0529 4.95557 9.31289 5.22557 8.74289 5.22557H7.01289Z" fill="#797979"/>
</g>
</svg>
